# Blender 4.0.2
# www.blender.org
mtllib cube.mtl
o Cube
v 1.000000 1.000000 -1.000000
v 1.000000 -1.000000 -1.000000
v 1.000000 1.000000 1.000000
v 1.000000 -1.000000 1.000000
v -1.000000 1.000000 -1.000000
v -1.000000 -1.000000 -1.000000
v -1.000000 1.000000 1.000000
v -1.000000 -1.000000 1.000000
v -1.000000 -0.950000 0.950000
v -1.000000 0.950000 -0.950000
v -1.000000 0.950000 0.950000
v -1.000000 -0.950000 -0.950000
v 1.000000 -0.950000 -0.950000
v 1.000000 0.950000 0.950000
v 1.000000 0.950000 -0.950000
v 1.000000 -0.950000 0.950000
v 0.950000 -0.950000 1.000000
v -0.950000 0.950000 1.000000
v 0.950000 0.950000 1.000000
v -0.950000 -0.950000 1.000000
v -0.950000 -0.950000 -1.000000
v 0.950000 0.950000 -1.000000
v -0.950000 0.950000 -1.000000
v 0.950000 -0.950000 -1.000000
v -0.950000 -0.950000 0.950000
v 0.950000 -0.950000 0.950000
v 0.493537 -0.950000 0.950000
v -0.493537 0.950000 0.950000
v -0.950000 0.950000 0.950000
v 0.950000 0.950000 0.950000
v -0.950000 -0.950000 -0.950000
v 0.950000 -0.950000 -0.950000
v -0.493537 -0.950000 -0.950000
v 0.493537 0.950000 -0.950000
v -0.950000 0.950000 -0.950000
v 0.950000 0.950000 -0.950000
v -0.950000 1.000000 0.950000
v 0.950000 1.000000 -0.950000
v -0.950000 1.000000 -0.950000
v 0.950000 1.000000 0.950000
v -0.950000 -1.000000 -0.950000
v 0.950000 -1.000000 -0.950000
v 0.950000 -1.000000 0.950000
v -0.950000 -1.000000 0.950000
vn -0.0000 1.0000 -0.0000
vn -0.0000 -0.0000 1.0000
vn -1.0000 -0.0000 -0.0000
vn -0.0000 -1.0000 -0.0000
vn 1.0000 -0.0000 -0.0000
vn -0.0000 -0.0000 -1.0000
vt 0.125000 1.000000
vt 0.856250 0.975000
vt 0.143750 0.975000
vt 0.875000 0.000000
vt 0.143750 0.025000
vt 0.856250 0.025000
vt 0.875000 1.000000
vt 0.125000 0.000000
vt 0.875000 0.025000
vt 0.125000 0.025000
vt 0.125000 0.975000
vt 0.875000 0.975000
vt 0.856250 0.000000
vt 0.685076 0.025000
vt 0.314924 0.975000
vt 0.856250 1.000000
vt 0.143750 0.000000
vt 0.314924 0.025000
vt 0.143750 1.000000
vt 0.685076 0.975000
s 0
usemtl Material.002
f 7/1/1 40/2/1 37/3/1
f 1/4/1 39/5/1 38/6/1
f 3/7/2 7/1/2 19/2/2
f 8/8/2 17/6/2 20/5/2
f 10/6/3 5/4/3 12/5/3
f 9/3/3 8/1/3 11/2/3
f 6/8/4 2/4/4 41/5/4
f 8/1/4 43/2/4 4/7/4
f 15/6/5 1/4/5 3/7/5
f 4/1/5 13/5/5 16/3/5
f 22/2/6 1/7/6 24/6/6
f 21/5/6 6/8/6 23/3/6
f 15/9/4 30/2/4 36/6/4
f 10/10/4 29/3/4 11/11/4
f 9/10/6 29/3/6 25/5/6
f 16/9/6 30/2/6 14/12/6
f 16/12/1 32/6/1 26/2/1
f 9/11/1 31/5/1 12/10/1
f 13/9/2 36/2/2 32/6/2
f 12/10/2 35/3/2 10/11/2
f 22/13/4 34/14/4 35/5/4
f 29/3/4 28/15/4 19/16/4
f 18/16/5 25/3/5 29/2/5
f 21/17/5 35/6/5 31/5/5
f 24/13/1 31/5/1 33/18/1
f 20/19/1 26/2/1 27/20/1
f 22/13/3 32/5/3 36/6/3
f 17/19/3 30/2/3 26/3/3
f 28/15/6 37/19/6 30/2/6
f 27/14/6 43/13/6 25/5/6
f 44/11/5 31/5/5 25/3/5
f 39/9/5 29/2/5 35/6/5
f 35/3/2 34/20/2 38/16/2
f 32/6/2 33/18/2 41/17/2
f 38/9/3 30/2/3 40/12/3
f 43/11/3 32/5/3 42/10/3
f 39/5/1 5/8/1 7/1/1
f 7/1/1 3/7/1 40/2/1
f 37/3/1 39/5/1 7/1/1
f 40/2/1 3/7/1 1/4/1
f 1/4/1 5/8/1 39/5/1
f 38/6/1 40/2/1 1/4/1
f 19/2/2 17/6/2 4/4/2
f 7/1/2 8/8/2 20/5/2
f 7/1/2 20/5/2 18/3/2
f 19/2/2 4/4/2 3/7/2
f 7/1/2 18/3/2 19/2/2
f 8/8/2 4/4/2 17/6/2
f 10/6/3 11/2/3 7/7/3
f 5/4/3 6/8/3 12/5/3
f 10/6/3 7/7/3 5/4/3
f 9/3/3 12/5/3 6/8/3
f 8/1/3 7/7/3 11/2/3
f 9/3/3 6/8/3 8/1/3
f 41/5/4 44/3/4 8/1/4
f 2/4/4 4/7/4 43/2/4
f 2/4/4 43/2/4 42/6/4
f 41/5/4 8/1/4 6/8/4
f 2/4/4 42/6/4 41/5/4
f 8/1/4 44/3/4 43/2/4
f 15/6/5 13/5/5 2/8/5
f 3/7/5 4/1/5 16/3/5
f 3/7/5 16/3/5 14/2/5
f 15/6/5 2/8/5 1/4/5
f 3/7/5 14/2/5 15/6/5
f 4/1/5 2/8/5 13/5/5
f 22/2/6 23/3/6 5/1/6
f 1/7/6 2/4/6 24/6/6
f 22/2/6 5/1/6 1/7/6
f 21/5/6 24/6/6 2/4/6
f 6/8/6 5/1/6 23/3/6
f 21/5/6 2/4/6 6/8/6
f 15/9/4 14/12/4 30/2/4
f 10/10/4 35/5/4 29/3/4
f 9/10/6 11/11/6 29/3/6
f 16/9/6 26/6/6 30/2/6
f 16/12/1 13/9/1 32/6/1
f 9/11/1 25/3/1 31/5/1
f 13/9/2 15/12/2 36/2/2
f 12/10/2 31/5/2 35/3/2
f 35/5/4 23/17/4 22/13/4
f 22/13/4 36/6/4 34/14/4
f 19/16/4 18/19/4 29/3/4
f 28/15/4 30/2/4 19/16/4
f 18/16/5 20/19/5 25/3/5
f 21/17/5 23/13/5 35/6/5
f 33/18/1 32/6/1 24/13/1
f 24/13/1 21/17/1 31/5/1
f 27/20/1 25/3/1 20/19/1
f 20/19/1 17/16/1 26/2/1
f 22/13/3 24/17/3 32/5/3
f 17/19/3 19/16/3 30/2/3
f 28/15/6 29/3/6 37/19/6
f 37/19/6 40/16/6 30/2/6
f 27/14/6 26/6/6 43/13/6
f 43/13/6 44/17/6 25/5/6
f 44/11/5 41/10/5 31/5/5
f 39/9/5 37/12/5 29/2/5
f 38/16/2 39/19/2 35/3/2
f 34/20/2 36/2/2 38/16/2
f 41/17/2 42/13/2 32/6/2
f 33/18/2 31/5/2 41/17/2
f 38/9/3 36/6/3 30/2/3
f 43/11/3 26/3/3 32/5/3
