# Blender 4.0.2
# www.blender.org
mtllib fish.mtl
o Sketchfab_Model
v -0.396420 0.820134 0.812273
v -0.396420 0.820134 0.812273
v -0.196234 1.450160 0.401443
v -0.196234 1.450160 -0.402732
v -0.396420 0.820134 -0.812273
v -0.396420 0.820134 -0.812273
v 0.196234 1.450160 0.401443
v 0.396420 0.820134 0.812273
v 0.396420 0.820134 0.812273
v 0.396420 0.820134 0.812273
v 0.196234 1.450160 -0.402732
v 0.396420 0.820133 -0.812273
v 0.396420 0.820133 -0.812273
v 0.396420 0.820133 -0.812273
v -0.396420 -0.727020 0.812273
v -0.396420 -0.727020 0.812273
v -0.396420 -0.727020 -0.812273
v -0.396420 -0.727020 -0.812273
v 0.396420 -0.727020 0.812273
v 0.396420 -0.727020 0.812273
v 0.396420 -0.727020 0.812273
v 0.396420 -0.727020 -0.812273
v 0.396420 -0.727020 -0.812273
v 0.396420 -0.727020 -0.812273
v -0.396420 0.005674 -0.812273
v -0.396420 0.005674 0.812273
v 0.396420 0.005674 0.812273
v 0.396420 0.005674 0.812273
v 0.396420 0.005674 -0.812273
v 0.396420 0.005674 -0.812273
v 0.488038 -0.902655 -0.195402
v 0.488038 1.002068 -0.195403
v 0.488038 1.002068 -0.195403
v 0.488038 1.002068 -0.195403
v -0.220798 1.580785 -0.089048
v -0.488038 1.002068 -0.195403
v 0.220799 1.580785 -0.089048
v -0.488038 -0.902655 -0.195402
v 0.488038 -0.000625 -0.195402
v -0.488038 -0.000625 -0.195402
v -0.488038 -0.902655 0.172414
v -0.220798 1.580785 0.077359
v 0.220799 1.580785 0.077359
v -0.488038 1.002068 0.172414
v 0.488038 1.002068 0.172414
v 0.488038 1.002068 0.172414
v 0.488038 1.002068 0.172414
v 0.488038 -0.902655 0.172414
v -0.488038 -0.000625 0.172414
v 0.488038 -0.000625 0.172414
v -0.201136 -2.602175 0.898350
v -0.201136 -2.602175 -0.895012
v -0.201136 -2.602175 -0.895012
v 0.199248 -2.602175 0.898350
v 0.199248 -2.602175 -0.895012
v -0.201136 -2.602175 -0.173545
v -0.201136 -2.602175 -0.173545
v 0.199248 -2.602175 -0.173545
v 0.199248 -2.602175 0.156269
v -0.201136 -2.602175 0.156269
v -0.120506 -1.606519 0.359552
v -0.120506 -1.606519 -0.361146
v -0.120506 -1.606519 -0.361146
v -0.120506 -1.606519 -0.361146
v 0.119476 -1.606519 0.359552
v 0.119476 -1.606519 -0.361146
v 0.119476 -1.606519 -0.361146
v -0.120506 -1.606519 -0.071210
v -0.120506 -1.606519 -0.071210
v -0.120506 -1.606519 -0.071210
v 0.119476 -1.606519 -0.071210
v 0.119476 -1.606519 0.061332
v -0.120506 -1.606519 0.061332
v 0.206063 0.937656 0.932367
v 0.206063 0.937656 0.932367
v 0.084817 1.565958 0.383896
v 0.206063 0.937656 -0.932367
v 0.206063 0.937656 -0.932367
v 0.084817 1.565958 -0.385185
v 0.206063 -0.838244 -0.932367
v 0.206063 -0.838244 -0.932367
v 0.206063 -0.838243 0.932367
v 0.206063 -0.838243 0.932367
v 0.221320 -0.000625 1.000000
v 0.221320 -0.000625 -1.000000
v 0.100130 1.691161 -0.089048
v 0.100130 1.691161 0.077359
v 0.089841 -2.602175 -0.895012
v 0.089841 -2.602175 0.898350
v 0.089841 -2.602175 -0.173545
v 0.089841 -2.602175 0.156269
v 0.053899 -1.606519 -0.361146
v 0.053899 -1.606519 0.359552
v -0.088668 1.565958 0.383896
v -0.214575 0.937656 -0.932367
v -0.214575 0.937656 -0.932367
v -0.214575 -0.838243 0.932367
v -0.214575 -0.838243 0.932367
v -0.229832 -0.000625 1.000000
v -0.095221 -2.602175 -0.895012
v -0.095221 -2.602175 -0.173545
v -0.095221 -2.602175 0.156269
v -0.057022 -1.606519 -0.361146
v -0.214575 0.937656 0.932367
v -0.214575 0.937656 0.932367
v -0.088668 1.565958 -0.385185
v -0.214575 -0.838244 -0.932367
v -0.214575 -0.838244 -0.932367
v -0.229832 -0.000625 -1.000000
v -0.103981 1.691161 -0.089048
v -0.103981 1.691161 0.077359
v -0.095221 -2.602175 0.898350
v -0.057022 -1.606519 0.359552
v 0.071393 -0.000625 1.337123
v -0.079906 -0.000625 1.337123
v -0.802599 -0.000625 -0.195402
v -0.802599 -0.000625 0.172414
v 0.801450 -0.000625 -0.195402
v 0.801450 -0.000625 -0.195402
v 0.801450 -0.000625 0.172414
v 0.801450 -0.000625 0.172414
vn -0.8777 -0.2945 0.3780
vn -0.9373 0.3112 0.1568
vn -0.6661 -0.4892 0.5630
vn 0.6147 -0.2003 0.7629
vn 0.4759 0.5622 0.6764
vn 0.4011 -0.4847 0.7773
vn -0.4663 0.5741 0.6730
vn -0.6210 -0.2132 0.7543
vn -0.4011 -0.4847 0.7773
vn -0.9356 0.3137 -0.1619
vn -0.8766 -0.2943 -0.3808
vn -0.6661 -0.4892 -0.5630
vn 0.8766 -0.2943 -0.3808
vn 0.7423 0.6510 0.1583
vn 0.9006 -0.2768 -0.3350
vn 0.7375 0.6543 -0.1673
vn 0.8777 -0.2945 0.3780
vn 0.8914 -0.2923 0.3464
vn 0.8331 -0.0020 0.5531
vn 0.8528 -0.2036 0.4810
vn 0.9643 -0.2497 0.0883
vn -0.3728 0.0040 -0.9279
vn -0.8917 0.0058 -0.4526
vn -0.8480 0.2473 -0.4689
vn -0.3575 0.4724 -0.8056
vn 0.3491 0.9189 0.1836
vn 0.3092 0.7885 0.5317
vn 0.7248 0.5611 0.3998
vn 0.7873 0.5999 0.1420
vn 0.9314 0.0108 0.3639
vn 0.8447 0.3255 0.4249
vn 0.8545 -0.0468 0.5173
vn 0.9625 0.1448 0.2295
vn -0.7912 0.5942 -0.1446
vn -0.7297 0.5560 -0.3979
vn 0.4148 0.3491 0.8403
vn -0.3487 0.2278 -0.9091
vn -0.8219 -0.0239 -0.5691
vn -0.3155 0.7839 -0.5347
vn 0.0696 -0.0787 -0.9945
vn 0.8146 -0.2092 -0.5410
vn 0.5747 -0.4141 -0.7059
vn -0.0000 -0.5135 -0.8581
vn -0.8372 -0.5465 -0.0196
vn -0.6696 -0.5896 -0.4517
vn -0.5354 -0.4945 -0.6847
vn -0.6664 -0.7454 0.0176
vn 0.6986 -0.3099 -0.6450
vn 0.9789 -0.1918 -0.0703
vn 0.7348 -0.6783 -0.0000
vn -0.0718 -0.0782 0.9943
vn -0.7803 -0.1895 0.5960
vn -0.5747 -0.4127 0.7067
vn -0.0000 -0.5119 0.8590
vn -0.8925 -0.0096 0.4509
vn -0.8570 0.2426 0.4546
vn -0.9647 -0.2477 0.0892
vn -0.9662 -0.2427 -0.0871
vn -0.9778 -0.1960 -0.0746
vn -0.9800 -0.1933 0.0476
vn 0.7867 0.6002 -0.1447
vn 0.9611 0.1467 -0.2339
vn 0.3487 0.9180 -0.1887
vn 0.9664 -0.2419 -0.0870
vn 0.3634 -0.0086 -0.9316
vn 0.3318 0.4868 -0.8081
vn -0.8502 -0.2406 0.4683
vn 0.3100 -0.4536 0.8356
vn 0.8592 -0.3350 0.3867
vn -0.3197 -0.4548 -0.8312
vn -0.8619 -0.2338 -0.4500
vn 0.7475 0.3859 0.5408
vn 0.7469 0.3847 -0.5424
vn 0.8330 -0.0021 -0.5533
vn 0.8559 -0.2092 -0.4729
vn 0.3054 0.7858 -0.5378
vn 0.7193 0.5577 -0.4143
vn 0.8547 -0.0391 -0.5177
vn 0.9797 -0.1945 0.0481
vn -0.0000 -1.0000 -0.0000
vn -0.7351 -0.6780 -0.0000
vn -0.7665 -0.6273 -0.1376
vn -0.7293 0.5551 0.4000
vn -0.7932 0.5927 0.1396
vn 0.8065 -0.1978 0.5572
vn 0.5745 -0.4128 0.7068
vn -0.3298 -0.1932 -0.9240
vn 0.3218 -0.2037 -0.9246
vn -0.0749 -0.0501 -0.9959
vn -0.6022 -0.4457 -0.6623
vn 0.8222 0.0142 -0.5690
vn -0.3321 -0.2029 0.9211
vn -0.8318 0.0202 0.5547
vn -0.8397 0.1441 -0.5235
vn -0.9779 0.1988 -0.0654
vn 0.8253 0.0126 0.5645
vn 0.3197 -0.1955 0.9271
vn 0.0733 -0.0415 0.9964
vn -0.4287 0.3438 0.8354
vn -0.3556 0.9154 -0.1886
vn -0.3566 0.9162 0.1828
vn 0.8440 -0.3284 -0.4241
vn 0.3260 -0.4392 -0.8372
vn 0.9290 -0.0149 -0.3699
vn -0.3362 -0.4403 0.8325
vn 0.3373 0.2275 -0.9135
vn -0.3144 0.7873 0.5304
vn 0.8555 0.3335 -0.3961
vn -0.8251 -0.0223 0.5646
vn -0.8375 -0.2446 -0.4886
vn -0.8303 0.0187 -0.5570
vn 0.5240 -0.6538 0.5459
vn 0.5240 -0.6538 -0.5459
vn 0.9282 0.2194 -0.3005
vn 0.9304 0.2175 0.2949
vt 0.521552 0.374858
vt 0.521552 0.300933
vt 0.806686 0.374858
vt 0.806686 0.300933
vt 0.691134 0.300933
vt 0.691134 0.374858
vt 0.475575 0.300933
vt 0.475575 0.374858
vt 0.475575 0.875142
vt 0.475575 0.949067
vt 0.521552 0.949067
vt 0.521552 0.875142
vt 0.625000 0.875142
vt 0.625000 0.808281
vt 0.521552 0.808281
vt 0.308866 0.374858
vt 0.375000 0.374858
vt 0.375000 0.300933
vt 0.308866 0.300933
vt 0.512770 0.091412
vt 0.574067 0.091412
vt 0.574066 0.050933
vt 0.512770 0.050933
vt 0.875000 0.374858
vt 0.875000 0.300933
vt 0.625000 0.000000
vt 0.521552 0.000000
vt 0.485527 0.199067
vt 0.425933 0.199067
vt 0.625000 0.068314
vt 0.375000 0.183866
vt 0.375000 0.250000
vt 0.425933 0.159880
vt 0.433281 0.655256
vt 0.433281 0.691719
vt 0.433281 0.691719
vt 0.486963 0.558281
vt 0.433281 0.558281
vt 0.433281 0.558281
vt 0.486963 0.691719
vt 0.566719 0.593580
vt 0.566719 0.558281
vt 0.625000 0.374858
vt 0.625000 0.300933
vt 0.521552 0.441719
vt 0.475575 0.441719
vt 0.486963 0.558281
vt 0.511503 0.558281
vt 0.485527 0.050933
vt 0.475575 0.000000
vt 0.485527 0.091412
vt 0.475575 0.808281
vt 0.193314 0.374858
vt 0.193314 0.300933
vt 0.625000 0.441719
vt 0.806686 0.441719
vt 0.875000 0.441719
vt 0.308866 0.441719
vt 0.375000 0.441719
vt 0.625000 0.949067
vt 0.375000 0.949067
vt 0.375000 0.875142
vt 0.375000 0.808281
vt 0.425933 0.091412
vt 0.425933 0.050933
vt 0.375000 0.000000
vt 0.511503 0.691719
vt 0.511503 0.593580
vt 0.486963 0.593580
vt 0.574067 0.199067
vt 0.512770 0.199067
vt 0.566719 0.691719
vt 0.375000 0.566134
vt 0.375000 0.681686
vt 0.433281 0.593580
vt 0.433281 0.593580
vt 0.375000 0.750000
vt 0.625000 0.566134
vt 0.625000 0.500000
vt 0.625000 0.750000
vt 0.625000 0.681686
vt 0.566719 0.655256
vt 0.625000 0.183866
vt 0.486963 0.655256
vt 0.511503 0.655256
vt 0.485527 0.159880
vt 0.512770 0.159880
vt 0.125000 0.441719
vt 0.193314 0.441719
vt 0.125000 0.374858
vt 0.691134 0.441719
vt 0.375000 0.068314
vt 0.574067 0.159880
vt 0.125000 0.300933
vt 0.625000 0.250000
vt 0.375000 0.500000
s 1
usemtl Material.003
f 49/1/1 44/2/2 117/1/3
f 84/3/4 74/4/5 114/3/6
f 104/5/7 99/6/8 115/6/9
f 36/7/10 40/8/11 116/8/12
f 39/9/13 32/10/14 119/9/15
f 47/11/16 50/12/17 121/12/18
f 50/12/17 28/13/19 21/14/20
f 50/12/17 21/14/20 48/15/21
f 109/16/22 25/17/23 6/18/24
f 109/16/22 6/18/24 96/19/25
f 87/20/26 76/21/27 7/22/28
f 87/20/26 7/22/28 43/23/29
f 84/3/4 27/24/30 8/25/31
f 84/3/4 8/25/31 74/4/5
f 43/23/29 7/22/28 9/26/32
f 43/23/29 9/26/32 46/27/33
f 35/28/34 4/29/35 6/18/24
f 35/28/34 6/18/24 36/7/10
f 75/30/36 9/26/32 7/22/28
f 75/30/36 7/22/28 76/21/27
f 95/31/37 5/32/38 4/29/35
f 95/31/37 4/29/35 106/33/39
f 92/34/40 67/35/41 55/36/42
f 92/34/40 55/36/42 88/34/43
f 70/37/44 64/38/45 52/39/46
f 70/37/44 52/39/46 57/37/47
f 66/36/48 71/40/49 58/40/50
f 66/36/48 58/40/50 55/36/42
f 113/41/51 61/42/52 51/42/53
f 113/41/51 51/42/53 112/41/54
f 49/1/1 26/43/55 1/44/56
f 49/1/1 1/44/56 44/2/2
f 41/45/57 38/46/58 69/47/59
f 41/45/57 69/47/59 73/48/60
f 37/49/61 43/23/29 46/27/33
f 37/49/61 46/27/33 33/50/62
f 87/20/26 43/23/29 37/49/61
f 87/20/26 37/49/61 86/51/63
f 50/12/17 48/15/21 31/52/64
f 50/12/17 31/52/64 39/9/13
f 41/45/57 49/1/1 40/8/11
f 41/45/57 40/8/11 38/46/58
f 85/53/65 109/16/22 96/19/25
f 85/53/65 96/19/25 78/54/66
f 41/45/57 15/55/67 26/43/55
f 41/45/57 26/43/55 49/1/1
f 82/56/68 19/57/69 27/24/30
f 82/56/68 27/24/30 84/3/4
f 50/12/17 39/9/13 119/9/15
f 50/12/17 119/9/15 121/12/18
f 108/58/70 18/59/71 25/17/23
f 108/58/70 25/17/23 109/16/22
f 47/11/16 10/60/72 28/13/19
f 47/11/16 28/13/19 50/12/17
f 18/59/71 38/46/58 40/8/11
f 18/59/71 40/8/11 25/17/23
f 12/61/73 32/10/14 39/9/13
f 12/61/73 39/9/13 29/62/74
f 29/62/74 39/9/13 31/52/64
f 29/62/74 31/52/64 22/63/75
f 79/64/76 86/51/63 37/49/61
f 79/64/76 37/49/61 11/65/77
f 11/65/77 37/49/61 33/50/62
f 11/65/77 33/50/62 13/66/78
f 71/40/49 31/52/64 48/15/21
f 71/40/49 48/15/21 72/67/79
f 25/17/23 40/8/11 36/7/10
f 25/17/23 36/7/10 6/18/24
f 102/68/80 60/48/81 56/37/82
f 102/68/80 56/37/82 101/69/80
f 3/70/83 42/71/84 44/2/2
f 3/70/83 44/2/2 1/44/56
f 61/42/52 73/48/60 60/48/81
f 61/42/52 60/48/81 51/42/53
f 72/67/79 65/72/85 54/72/86
f 72/67/79 54/72/86 59/67/50
f 36/7/10 116/8/12 117/1/3
f 36/7/10 117/1/3 44/2/2
f 107/73/87 80/74/88 92/34/40
f 107/73/87 92/34/40 103/75/89
f 102/68/80 112/41/54 51/42/53
f 102/68/80 51/42/53 60/48/81
f 69/47/59 56/37/82 60/48/81
f 69/47/59 60/48/81 73/48/60
f 100/76/43 101/69/80 56/37/82
f 100/76/43 56/37/82 53/39/90
f 72/67/79 59/67/50 58/40/50
f 72/67/79 58/40/50 71/40/49
f 80/74/88 23/77/91 67/35/41
f 80/74/88 67/35/41 92/34/40
f 15/55/67 41/45/57 73/48/60
f 15/55/67 73/48/60 61/42/52
f 66/36/48 22/63/75 31/52/64
f 66/36/48 31/52/64 71/40/49
f 98/78/92 16/79/93 61/42/52
f 98/78/92 61/42/52 113/41/51
f 38/46/58 18/59/71 63/38/94
f 38/46/58 63/38/94 68/37/95
f 72/67/79 48/15/21 21/14/20
f 72/67/79 21/14/20 65/72/85
f 20/80/96 83/81/97 93/82/98
f 20/80/96 93/82/98 65/72/85
f 115/6/9 114/3/6 75/30/36
f 115/6/9 75/30/36 105/83/99
f 83/81/97 98/78/92 113/41/51
f 83/81/97 113/41/51 93/82/98
f 55/36/42 58/40/50 90/84/80
f 55/36/42 90/84/80 88/34/43
f 59/67/50 54/72/86 89/82/54
f 59/67/50 89/82/54 91/85/80
f 58/40/50 59/67/50 91/85/80
f 58/40/50 91/85/80 90/84/80
f 110/86/100 111/87/101 87/20/26
f 110/86/100 87/20/26 86/51/63
f 24/88/102 81/89/103 85/53/65
f 24/88/102 85/53/65 30/90/104
f 106/33/39 110/86/100 86/51/63
f 106/33/39 86/51/63 79/64/76
f 65/72/85 93/82/98 89/82/54
f 65/72/85 89/82/54 54/72/86
f 97/91/105 82/56/68 84/3/4
f 97/91/105 84/3/4 99/6/8
f 13/66/78 77/92/106 79/64/76
f 13/66/78 79/64/76 11/65/77
f 103/75/89 92/34/40 88/34/43
f 103/75/89 88/34/43 100/76/43
f 105/83/99 75/30/36 76/21/27
f 105/83/99 76/21/27 94/93/107
f 30/90/104 85/53/65 78/54/66
f 30/90/104 78/54/66 14/94/108
f 42/71/84 3/70/83 94/93/107
f 42/71/84 94/93/107 111/87/101
f 26/43/55 99/6/8 104/5/7
f 26/43/55 104/5/7 1/44/56
f 2/95/109 105/83/99 94/93/107
f 2/95/109 94/93/107 3/70/83
f 62/39/110 103/75/89 100/76/43
f 62/39/110 100/76/43 53/39/90
f 15/55/67 97/91/105 99/6/8
f 15/55/67 99/6/8 26/43/55
f 4/29/35 35/28/34 110/86/100
f 4/29/35 110/86/100 106/33/39
f 17/96/111 107/73/87 103/75/89
f 17/96/111 103/75/89 62/39/110
f 111/87/101 94/93/107 76/21/27
f 111/87/101 76/21/27 87/20/26
f 42/71/84 111/87/101 110/86/100
f 42/71/84 110/86/100 35/28/34
s 0
f 91/85/80 102/68/80 101/69/80
f 91/85/80 101/69/80 90/84/80
s 1
f 88/34/43 90/84/80 101/69/80
f 88/34/43 101/69/80 100/76/43
f 91/85/80 89/82/54 112/41/54
f 91/85/80 112/41/54 102/68/80
f 81/89/103 108/58/70 109/16/22
f 81/89/103 109/16/22 85/53/65
f 93/82/98 113/41/51 112/41/54
f 93/82/98 112/41/54 89/82/54
f 77/92/106 95/31/37 106/33/39
f 77/92/106 106/33/39 79/64/76
f 40/8/11 49/1/1 117/1/3
f 40/8/11 117/1/3 116/8/12
f 42/71/84 35/28/34 36/7/10
f 42/71/84 36/7/10 44/2/2
f 120/12/112 118/9/113 34/50/114
f 120/12/112 34/50/114 45/27/115
f 99/6/8 84/3/4 114/3/6
f 99/6/8 114/3/6 115/6/9
