# Blender 4.0.2
# www.blender.org
mtllib fish.mtl
o Object_7
v 0.000000 -1.224664 0.615689
v 0.000001 -1.811626 0.280138
v 0.097329 -1.224664 0.562074
v 0.000001 -1.863706 0.001308
v 0.000001 -1.848832 -0.138106
v 0.136920 -1.224664 0.001308
v 0.000001 -1.848832 0.140723
v 0.144710 -1.224664 0.360100
v 0.000001 -1.811626 -0.277521
v 0.091324 -1.224664 -0.357483
v -0.000000 1.370462 -0.490384
v 0.141081 1.502475 -0.226926
v 0.253319 1.372315 -0.305410
v 0.229744 1.378858 0.538313
v 0.312177 1.385615 0.420757
v 0.176561 1.534454 0.390639
v -0.000000 1.559941 -0.181655
v 0.000000 -1.224664 0.615689
v -0.097329 -1.224664 0.562074
v 0.000001 -1.811626 0.280138
v 0.000001 -1.863706 0.001308
v -0.136919 -1.224664 0.001308
v 0.000001 -1.848832 -0.138106
v 0.000001 -1.848832 0.140723
v -0.091323 -1.224664 -0.357483
v 0.000001 -1.811626 -0.277521
v -0.000000 1.370462 -0.490384
v -0.253320 1.372314 -0.305410
v -0.141082 1.502475 -0.226926
v -0.144709 -1.224664 0.360099
v -0.229745 1.378858 0.538312
v -0.176563 1.534454 0.390638
v -0.312179 1.385615 0.420756
v -0.000000 1.559941 -0.181655
v 0.000001 -1.224664 -0.601343
v 0.000001 -1.224664 -0.601343
v 0.357389 1.087571 -0.424094
v -0.000000 1.073266 -0.724811
v -0.000001 0.542760 0.863963
v -0.000000 -0.028189 0.906192
v 0.261035 -0.028189 0.814305
v 0.303507 0.542760 0.795324
v 0.191625 -0.599139 0.758431
v -0.000000 -0.599139 0.836426
v -0.000001 1.087571 0.719034
v 0.284659 1.087571 0.665622
v -0.000001 1.602579 0.385206
v 0.185035 1.556806 0.095500
v -0.000001 1.632382 0.109182
v 0.468949 -0.028189 0.001308
v 0.331416 -0.028190 -0.543564
v 0.373765 0.542760 -0.523085
v 0.516960 0.542760 0.011576
v 0.226002 -0.599139 -0.501582
v 0.330490 -0.599139 0.001308
v 0.459136 1.087571 0.054455
v 0.469682 0.542760 0.537362
v 0.420877 -0.028189 0.545484
v 0.311073 -0.599139 0.503502
v 0.429940 1.087571 0.472185
v -0.000001 1.378187 0.575533
v 0.000000 -0.028190 -0.903576
v 0.000000 0.542759 -0.879812
v 0.000001 -0.599139 -0.833810
v 0.314409 1.400516 0.081818
v -0.000000 1.073266 -0.724811
v -0.357389 1.087571 -0.424095
v -0.000001 0.542760 0.863963
v -0.303508 0.542759 0.795324
v -0.261036 -0.028190 0.814305
v -0.000000 -0.028189 0.906192
v -0.191625 -0.599139 0.758431
v -0.000000 -0.599139 0.836426
v -0.000001 1.087571 0.719034
v -0.284660 1.087571 0.665622
v -0.185037 1.556806 0.095500
v -0.000001 1.602579 0.385206
v -0.000001 1.632382 0.109182
v -0.468948 -0.028190 0.001308
v -0.516961 0.542759 0.011575
v -0.373765 0.542759 -0.523086
v -0.331416 -0.028190 -0.543564
v -0.330490 -0.599139 0.001308
v -0.226001 -0.599139 -0.501582
v -0.459137 1.087571 0.054455
v -0.469683 0.542759 0.537362
v -0.420878 -0.028190 0.545484
v -0.311073 -0.599139 0.503501
v -0.429941 1.087571 0.472185
v -0.000001 1.378187 0.575533
v 0.000000 0.542759 -0.879812
v 0.000000 -0.028190 -0.903576
v 0.000001 -0.599139 -0.833810
v -0.314410 1.400516 0.081818
v 0.000001 -2.135310 0.197808
v 0.000000 -2.055085 0.364818
v 0.000001 -2.298544 0.449499
v 0.000001 -2.421790 0.254894
v 0.000001 -2.168895 0.000873
v 0.000001 -2.474083 0.000437
v 0.000001 -2.421790 -0.254020
v 0.000001 -2.135311 -0.196063
v 0.000001 -2.298543 -0.448625
v 0.000001 -2.055085 -0.363073
v 0.000000 -1.811626 0.280138
v 0.000001 -1.848832 0.140723
v 0.000001 -1.822112 0.140723
v 0.000000 -1.784906 0.280138
v 0.000001 -1.863706 0.001308
v 0.000001 -1.848832 -0.138106
v 0.000001 -1.822112 -0.138106
v 0.000001 -1.836987 0.001308
v 0.000001 -1.811626 -0.277521
v 0.000001 -1.784906 -0.277521
v 0.000001 -2.542002 0.534179
v 0.000001 -2.708268 0.311979
v 0.000001 -2.779272 0.000001
v 0.000001 -2.708269 -0.311977
v 0.000001 -2.542002 -0.534178
v 0.000000 -1.224664 0.615689
v -0.000000 -0.599139 0.836426
v -0.000000 -0.718388 1.092305
v 0.000000 -1.343913 0.871567
v 0.000001 -1.811626 0.280138
v 0.000001 -1.930876 0.536016
v 0.000000 -1.224664 0.596701
v -0.000000 -0.599139 0.817439
v 0.000001 -1.811626 0.261151
v 0.000000 0.542759 -0.877567
v 0.000001 -0.028190 -0.901331
v 0.000001 -0.028190 -1.334374
v 0.000001 0.542759 -1.310610
v 0.000001 -0.599139 -0.831565
v 0.000001 -1.224664 -0.599098
v 0.000001 -1.414376 -0.979799
v 0.000001 -0.692943 -1.242844
v 0.000000 1.073266 -0.722566
v 0.000000 1.073265 -1.155608
v 0.000001 -1.811626 -0.275276
v 0.000001 -1.973098 -0.593321
v 0.000000 0.542759 -0.845234
v 0.000001 -0.028190 -0.868997
v 0.000001 -0.599139 -0.799231
v 0.000001 -1.224664 -0.566764
v 0.000000 1.073266 -0.690232
v 0.000001 -1.811626 -0.242942
v 0.425611 -0.028189 1.021421
v 0.299817 -0.028189 0.933651
v 0.226824 -0.028189 1.021524
v 0.323130 -0.028189 1.181853
v 0.108381 -0.028189 1.031423
v 0.129750 -0.028189 1.186335
v 0.174023 -0.028189 0.845882
v 0.130517 -0.028189 0.861196
v 0.087012 -0.028189 0.876511
v 0.174023 -0.028189 0.804134
v 0.130517 -0.028189 0.819448
v 0.087012 -0.028189 0.834763
v -0.425612 -0.028190 1.021420
v -0.323131 -0.028189 1.181852
v -0.226825 -0.028190 1.021524
v -0.299818 -0.028190 0.933651
v -0.129751 -0.028189 1.186335
v -0.108381 -0.028189 1.031423
v -0.130518 -0.028190 0.861196
v -0.174024 -0.028190 0.845882
v -0.087012 -0.028189 0.876511
v -0.130518 -0.028190 0.819448
v -0.174024 -0.028190 0.804134
v -0.087012 -0.028189 0.834763
v 1.038611 0.542760 0.037171
v 0.765776 0.542760 0.155995
v 0.795067 0.542760 0.298720
v 1.100167 0.542760 0.289573
v 0.851579 0.542760 0.758583
v 1.014971 0.542760 0.558509
v 0.750970 0.542760 0.449870
v 0.667774 0.542760 0.566589
v 0.898858 0.542760 -0.146368
v 0.697385 0.542760 0.047701
v 0.492940 0.542760 0.274819
v 0.489968 0.542760 0.307867
v 0.486968 0.542760 0.341231
v 0.483968 0.542760 0.374595
v 0.495912 0.542760 0.241770
v 0.458621 0.542760 0.307867
v 0.455621 0.542760 0.341231
v 0.464565 0.542760 0.241770
v 0.461593 0.542760 0.274819
v 0.452621 0.542760 0.374595
v -0.795068 0.542759 0.298719
v -0.765776 0.542759 0.155994
v -1.038611 0.542759 0.037170
v -1.100167 0.542759 0.289572
v -0.851580 0.542759 0.758582
v -0.667774 0.542759 0.566588
v -0.750971 0.542759 0.449869
v -1.014972 0.542759 0.558508
v -0.697385 0.542759 0.047700
v -0.898858 0.542759 -0.146369
v -0.489969 0.542759 0.307867
v -0.492941 0.542759 0.274818
v -0.483969 0.542759 0.374594
v -0.486969 0.542759 0.341231
v -0.495912 0.542759 0.241770
v -0.455622 0.542759 0.341231
v -0.458622 0.542759 0.307867
v -0.461593 0.542759 0.274818
v -0.464565 0.542759 0.241770
v -0.452622 0.542759 0.374594
vn -0.0000 -0.4115 0.9114
vn -0.0000 -0.8899 0.4561
vn 0.7098 -0.3561 0.6078
vn -0.0000 -1.0000 0.0001
vn -0.0000 -0.9695 -0.2452
vn 0.9684 -0.2394 -0.0700
vn -0.0000 -0.9918 0.1279
vn 0.9551 -0.2637 0.1349
vn -0.0000 -0.8695 -0.4938
vn 0.9362 -0.2224 -0.2722
vn -0.0000 0.6851 -0.7284
vn 0.4582 0.8092 -0.3679
vn 0.6939 0.5833 -0.4224
vn 0.4451 0.5441 0.7112
vn 0.7993 0.5299 0.2835
vn 0.4786 0.7957 0.3712
vn -0.0000 0.9395 -0.3426
vn -0.7098 -0.3561 0.6078
vn -0.0000 -1.0000 -0.0000
vn -0.9684 -0.2393 -0.0700
vn -0.9362 -0.2224 -0.2722
vn -0.6939 0.5833 -0.4224
vn -0.4582 0.8092 -0.3679
vn -0.9551 -0.2637 0.1349
vn -0.4451 0.5440 0.7113
vn -0.4786 0.7957 0.3712
vn -0.7993 0.5299 0.2835
vn -0.0000 -0.4564 -0.8898
vn 0.8135 0.3122 -0.4907
vn -0.0000 0.3981 -0.9173
vn -0.0000 0.1447 0.9895
vn -0.0000 -0.0429 0.9991
vn 0.6237 -0.0818 0.7774
vn 0.5750 0.0988 0.8122
vn 0.6647 -0.2367 0.7087
vn -0.0000 -0.2328 0.9725
vn -0.0000 0.3391 0.9408
vn 0.5199 0.3136 0.7946
vn -0.0000 0.9111 0.4122
vn 0.5652 0.8223 -0.0659
vn -0.0000 0.9984 -0.0569
vn 0.9859 -0.1458 -0.0816
vn 0.8776 -0.1048 -0.4678
vn 0.8594 0.0557 -0.5083
vn 0.9966 0.0082 -0.0825
vn 0.8979 -0.2138 -0.3849
vn 0.9666 -0.2442 -0.0782
vn 0.9651 0.2516 -0.0722
vn 0.9438 0.0250 0.3295
vn 0.9454 -0.1346 0.2967
vn 0.9435 -0.2398 0.2289
vn 0.9114 0.2584 0.3202
vn -0.0000 0.5549 0.8319
vn -0.0000 -0.0967 -0.9953
vn -0.0000 0.1180 -0.9930
vn -0.0000 -0.3017 -0.9534
vn 0.8362 0.5443 -0.0673
vn -0.8135 0.3122 -0.4907
vn -0.5750 0.0988 0.8122
vn -0.6237 -0.0818 0.7774
vn -0.6646 -0.2366 0.7087
vn -0.5199 0.3136 0.7946
vn -0.5652 0.8223 -0.0659
vn -0.9859 -0.1459 -0.0817
vn -0.9966 0.0082 -0.0825
vn -0.8594 0.0557 -0.5083
vn -0.8776 -0.1048 -0.4678
vn -0.9666 -0.2442 -0.0782
vn -0.8979 -0.2138 -0.3849
vn -0.9651 0.2516 -0.0722
vn -0.9438 0.0250 0.3295
vn -0.9454 -0.1346 0.2967
vn -0.9435 -0.2398 0.2289
vn -0.9114 0.2584 0.3202
vn -0.8362 0.5443 -0.0673
vn 1.0000 -0.0000 -0.0000
vn -0.0000 1.0000 -0.0000
vt 0.603058 0.914574
vt 0.722260 0.832761
vt 0.595730 0.891792
vt 0.733410 0.773426
vt 0.730463 0.743715
vt 0.595462 0.772367
vt 0.730103 0.803111
vt 0.594074 0.847811
vt 0.722946 0.714083
vt 0.597375 0.696241
vt 0.063651 0.654192
vt 0.051466 0.722905
vt 0.084607 0.712082
vt 0.083510 0.871155
vt 0.088209 0.846364
vt 0.051489 0.845408
vt 0.017673 0.723361
vt 0.133022 0.465698
vt 0.140307 0.442903
vt 0.013672 0.384110
vt 0.002411 0.324797
vt 0.140354 0.323481
vt 0.005303 0.295081
vt 0.005774 0.354474
vt 0.138300 0.247361
vt 0.012764 0.265437
vt 0.671948 0.204320
vt 0.651098 0.262250
vt 0.684260 0.273012
vt 0.141882 0.398921
vt 0.652486 0.421324
vt 0.684461 0.395518
vt 0.647743 0.396542
vt 0.718054 0.273407
vt 0.601057 0.641201
vt 0.134515 0.192329
vt 0.139814 0.692024
vt 0.126664 0.606698
vt 0.225562 0.986399
vt 0.348947 0.996737
vt 0.346317 0.938436
vt 0.235604 0.925283
vt 0.463596 0.930946
vt 0.472936 0.973802
vt 0.113446 0.947706
vt 0.136065 0.895485
vt 0.013527 0.854418
vt 0.045880 0.788178
vt 0.003765 0.790749
vt 0.347647 0.772714
vt 0.349370 0.664785
vt 0.240801 0.673130
vt 0.242162 0.774218
vt 0.464784 0.668889
vt 0.461697 0.772555
vt 0.144951 0.781191
vt 0.239559 0.869072
vt 0.345965 0.876804
vt 0.460427 0.873553
vt 0.143345 0.853855
vt 0.054456 0.907429
vt 0.352759 0.565456
vt 0.234060 0.572080
vt 0.472120 0.585887
vt 0.083929 0.785451
vt 0.608845 0.156941
vt 0.595852 0.242293
vt 0.510644 0.536830
vt 0.500491 0.475732
vt 0.389800 0.489088
vt 0.387277 0.547393
vt 0.272510 0.481813
vt 0.263249 0.524684
vt 0.622691 0.497931
vt 0.599976 0.445751
vt 0.689965 0.338277
vt 0.722441 0.404459
vt 0.732087 0.340771
vt 0.388166 0.323369
vt 0.493654 0.324678
vt 0.494828 0.223586
vt 0.386242 0.215443
vt 0.274116 0.323421
vt 0.270837 0.219762
vt 0.590880 0.331471
vt 0.496432 0.419528
vt 0.390041 0.427456
vt 0.275573 0.424415
vt 0.592619 0.404133
vt 0.681607 0.457546
vt 0.501381 0.122521
vt 0.382667 0.116120
vt 0.263346 0.136775
vt 0.651911 0.335620
vt 0.812234 0.340308
vt 0.779364 0.324410
vt 0.762548 0.372343
vt 0.800833 0.396734
vt 0.851026 0.347030
vt 0.850951 0.407173
vt 0.901123 0.397002
vt 0.889853 0.340516
vt 0.939539 0.372817
vt 0.922808 0.324794
vt 0.796181 0.276477
vt 0.823635 0.283882
vt 0.823649 0.278617
vt 0.796195 0.271211
vt 0.851101 0.286887
vt 0.878583 0.284030
vt 0.878597 0.278764
vt 0.851115 0.281622
vt 0.906077 0.276771
vt 0.906091 0.271506
vt 0.745732 0.420276
vt 0.789432 0.453159
vt 0.850875 0.467316
vt 0.912394 0.453489
vt 0.956270 0.420840
vt 0.751784 0.939553
vt 0.621724 0.926427
vt 0.621517 0.982059
vt 0.751578 0.995186
vt 0.884602 0.928972
vt 0.884396 0.984604
vt 0.753378 0.936168
vt 0.623317 0.923041
vt 0.886196 0.925586
vt 0.225931 0.115146
vt 0.336261 0.092565
vt 0.322641 0.008319
vt 0.212311 0.030899
vt 0.449529 0.088178
vt 0.578529 0.113727
vt 0.603461 0.033700
vt 0.454842 0.005218
vt 0.127596 0.161987
vt 0.113976 0.077739
vt 0.702898 0.158260
vt 0.724306 0.091310
vt 0.226948 0.121437
vt 0.337278 0.098855
vt 0.450547 0.094469
vt 0.579546 0.120017
vt 0.128613 0.168278
vt 0.703915 0.164550
vt 0.840605 0.199196
vt 0.818498 0.178581
vt 0.801818 0.193700
vt 0.816159 0.227653
vt 0.778435 0.192344
vt 0.778305 0.223161
vt 0.796391 0.157966
vt 0.787477 0.159746
vt 0.778564 0.161527
vt 0.797549 0.149821
vt 0.788636 0.151601
vt 0.779723 0.153382
vt 0.708806 0.199168
vt 0.733253 0.227625
vt 0.747593 0.193671
vt 0.730913 0.178552
vt 0.771106 0.223133
vt 0.770977 0.192316
vt 0.761934 0.159718
vt 0.753020 0.157937
vt 0.770847 0.161499
vt 0.760775 0.151573
vt 0.751862 0.149792
vt 0.769688 0.153354
vt 0.610527 0.566124
vt 0.665164 0.587431
vt 0.680903 0.563417
vt 0.636998 0.522300
vt 0.736908 0.491304
vt 0.686273 0.496557
vt 0.708068 0.548423
vt 0.735913 0.543674
vt 0.604552 0.611191
vt 0.659672 0.612067
vt 0.719800 0.608739
vt 0.724808 0.604534
vt 0.729863 0.600289
vt 0.734919 0.596044
vt 0.714792 0.612944
vt 0.729188 0.608890
vt 0.734243 0.604645
vt 0.719173 0.617300
vt 0.724180 0.613095
vt 0.739299 0.600400
vt 0.810290 0.560614
vt 0.826074 0.584599
vt 0.880671 0.563190
vt 0.854119 0.519416
vt 0.754153 0.488604
vt 0.755243 0.540972
vt 0.783096 0.545670
vt 0.804796 0.493764
vt 0.831611 0.609225
vt 0.886729 0.608245
vt 0.766460 0.601812
vt 0.771476 0.606008
vt 0.756334 0.593340
vt 0.761397 0.597576
vt 0.776491 0.610204
vt 0.757025 0.601941
vt 0.762088 0.606176
vt 0.767103 0.610372
vt 0.772119 0.614569
vt 0.751961 0.597705
s 1
usemtl Fish_001
f 1/1/1 2/2/2 3/3/3
f 4/4/4 5/5/5 6/6/6
f 7/7/7 6/6/6 8/8/8
f 5/5/5 9/9/9 10/10/10
f 11/11/11 12/12/12 13/13/13
f 2/2/2 8/8/8 3/3/3
f 14/14/14 15/15/15 16/16/16
f 11/11/11 17/17/17 12/12/12
f 18/18/1 19/19/18 20/20/2
f 21/21/19 22/22/20 23/23/5
f 24/24/7 22/22/20 21/21/19
f 23/23/5 25/25/21 26/26/9
f 27/27/11 28/28/22 29/29/23
f 20/20/2 30/30/24 24/24/7
f 31/31/25 32/32/26 33/33/27
f 27/27/11 29/29/23 34/34/17
f 2/2/2 7/7/7 8/8/8
f 20/20/2 19/19/18 30/30/24
f 7/7/7 4/4/4 6/6/6
f 24/24/7 30/30/24 22/22/20
f 5/5/5 10/10/10 6/6/6
f 22/22/20 25/25/21 23/23/5
f 9/9/9 35/35/28 10/10/10
f 25/25/21 36/36/28 26/26/9
f 11/11/11 13/13/13 37/37/29
f 11/11/11 37/37/29 38/38/30
f 39/39/31 40/40/32 41/41/33
f 39/39/31 41/41/33 42/42/34
f 1/1/1 3/3/3 43/43/35
f 1/1/1 43/43/35 44/44/36
f 45/45/37 39/39/31 42/42/34
f 45/45/37 42/42/34 46/46/38
f 44/44/36 43/43/35 41/41/33
f 44/44/36 41/41/33 40/40/32
f 47/47/39 16/16/16 48/48/40
f 47/47/39 48/48/40 49/49/41
f 50/50/42 51/51/43 52/52/44
f 50/50/42 52/52/44 53/53/45
f 10/10/10 54/54/46 55/55/47
f 10/10/10 55/55/47 6/6/6
f 53/53/45 52/52/44 37/37/29
f 53/53/45 37/37/29 56/56/48
f 54/54/46 51/51/43 50/50/42
f 54/54/46 50/50/42 55/55/47
f 17/17/17 49/49/41 48/48/40
f 17/17/17 48/48/40 12/12/12
f 50/50/42 53/53/45 57/57/49
f 50/50/42 57/57/49 58/58/50
f 8/8/8 6/6/6 55/55/47
f 8/8/8 55/55/47 59/59/51
f 53/53/45 56/56/48 60/60/52
f 53/53/45 60/60/52 57/57/49
f 59/59/51 55/55/47 50/50/42
f 59/59/51 50/50/42 58/58/50
f 47/47/39 61/61/53 14/14/14
f 47/47/39 14/14/14 16/16/16
f 51/51/43 62/62/54 63/63/55
f 51/51/43 63/63/55 52/52/44
f 35/35/28 64/64/56 54/54/46
f 35/35/28 54/54/46 10/10/10
f 52/52/44 63/63/55 38/38/30
f 52/52/44 38/38/30 37/37/29
f 64/64/56 62/62/54 51/51/43
f 64/64/56 51/51/43 54/54/46
f 60/60/52 56/56/48 65/65/57
f 60/60/52 65/65/57 15/15/15
f 56/56/48 37/37/29 13/13/13
f 56/56/48 13/13/13 65/65/57
f 61/61/53 45/45/37 46/46/38
f 61/61/53 46/46/38 14/14/14
f 58/58/50 57/57/49 42/42/34
f 58/58/50 42/42/34 41/41/33
f 3/3/3 8/8/8 59/59/51
f 3/3/3 59/59/51 43/43/35
f 57/57/49 60/60/52 46/46/38
f 57/57/49 46/46/38 42/42/34
f 59/59/51 58/58/50 41/41/33
f 59/59/51 41/41/33 43/43/35
f 60/60/52 15/15/15 14/14/14
f 60/60/52 14/14/14 46/46/38
f 15/15/15 65/65/57 48/48/40
f 15/15/15 48/48/40 16/16/16
f 65/65/57 13/13/13 12/12/12
f 65/65/57 12/12/12 48/48/40
f 27/27/11 66/66/30 67/67/58
f 27/27/11 67/67/58 28/28/22
f 68/68/31 69/69/59 70/70/60
f 68/68/31 70/70/60 71/71/32
f 72/72/61 19/19/18 18/18/1
f 72/72/61 18/18/1 73/73/36
f 74/74/37 75/75/62 69/69/59
f 74/74/37 69/69/59 68/68/31
f 70/70/60 72/72/61 73/73/36
f 70/70/60 73/73/36 71/71/32
f 76/76/63 32/32/26 77/77/39
f 76/76/63 77/77/39 78/78/41
f 79/79/64 80/80/65 81/81/66
f 79/79/64 81/81/66 82/82/67
f 83/83/68 84/84/69 25/25/21
f 83/83/68 25/25/21 22/22/20
f 80/80/65 85/85/70 67/67/58
f 80/80/65 67/67/58 81/81/66
f 79/79/64 82/82/67 84/84/69
f 79/79/64 84/84/69 83/83/68
f 34/34/17 29/29/23 76/76/63
f 34/34/17 76/76/63 78/78/41
f 86/86/71 80/80/65 79/79/64
f 86/86/71 79/79/64 87/87/72
f 30/30/24 88/88/73 83/83/68
f 30/30/24 83/83/68 22/22/20
f 89/89/74 85/85/70 80/80/65
f 89/89/74 80/80/65 86/86/71
f 88/88/73 87/87/72 79/79/64
f 88/88/73 79/79/64 83/83/68
f 77/77/39 32/32/26 31/31/25
f 77/77/39 31/31/25 90/90/53
f 82/82/67 81/81/66 91/91/55
f 82/82/67 91/91/55 92/92/54
f 84/84/69 93/93/56 36/36/28
f 84/84/69 36/36/28 25/25/21
f 81/81/66 67/67/58 66/66/30
f 81/81/66 66/66/30 91/91/55
f 82/82/67 92/92/54 93/93/56
f 82/82/67 93/93/56 84/84/69
f 94/94/75 85/85/70 89/89/74
f 94/94/75 89/89/74 33/33/27
f 28/28/22 67/67/58 85/85/70
f 28/28/22 85/85/70 94/94/75
f 90/90/53 31/31/25 75/75/62
f 90/90/53 75/75/62 74/74/37
f 69/69/59 86/86/71 87/87/72
f 69/69/59 87/87/72 70/70/60
f 19/19/18 72/72/61 88/88/73
f 19/19/18 88/88/73 30/30/24
f 75/75/62 89/89/74 86/86/71
f 75/75/62 86/86/71 69/69/59
f 70/70/60 87/87/72 88/88/73
f 70/70/60 88/88/73 72/72/61
f 31/31/25 33/33/27 89/89/74
f 31/31/25 89/89/74 75/75/62
f 76/76/63 94/94/75 33/33/27
f 76/76/63 33/33/27 32/32/26
f 29/29/23 28/28/22 94/94/75
f 29/29/23 94/94/75 76/76/63
s 0
f 95/95/76 96/96/76 97/97/76
f 95/95/76 97/97/76 98/98/76
f 99/99/76 100/100/76 101/101/76
f 99/99/76 101/101/76 102/102/76
f 98/98/76 100/100/76 99/99/76
f 98/98/76 99/99/76 95/95/76
f 102/102/76 101/101/76 103/103/76
f 102/102/76 103/103/76 104/104/76
f 105/105/76 106/106/76 107/107/76
f 105/105/76 107/107/76 108/108/76
f 109/109/76 110/110/76 111/111/76
f 109/109/76 111/111/76 112/112/76
f 106/106/76 109/109/76 112/112/76
f 106/106/76 112/112/76 107/107/76
f 110/110/76 113/113/76 114/114/76
f 110/110/76 114/114/76 111/111/76
f 106/106/76 105/105/76 96/96/76
f 106/106/76 96/96/76 95/95/76
f 115/115/76 116/116/76 98/98/76
f 115/115/76 98/98/76 97/97/76
f 100/100/76 117/117/76 118/118/76
f 100/100/76 118/118/76 101/101/76
f 102/102/76 110/110/76 109/109/76
f 102/102/76 109/109/76 99/99/76
f 116/116/76 117/117/76 100/100/76
f 116/116/76 100/100/76 98/98/76
f 109/109/76 106/106/76 95/95/76
f 109/109/76 95/95/76 99/99/76
f 101/101/76 118/118/76 119/119/76
f 101/101/76 119/119/76 103/103/76
f 104/104/76 113/113/76 110/110/76
f 104/104/76 110/110/76 102/102/76
f 120/120/76 121/121/76 122/122/76
f 120/120/76 122/122/76 123/123/76
f 124/124/76 120/120/76 123/123/76
f 124/124/76 123/123/76 125/125/76
f 121/121/76 120/120/76 126/126/76
f 121/121/76 126/126/76 127/127/76
f 120/120/76 124/124/76 128/128/76
f 120/120/76 128/128/76 126/126/76
f 129/129/76 130/130/76 131/131/76
f 129/129/76 131/131/76 132/132/76
f 133/133/76 134/134/76 135/135/76
f 133/133/76 135/135/76 136/136/76
f 137/137/76 129/129/76 132/132/76
f 137/137/76 132/132/76 138/138/76
f 130/130/76 133/133/76 136/136/76
f 130/130/76 136/136/76 131/131/76
f 134/134/76 139/139/76 140/140/76
f 134/134/76 140/140/76 135/135/76
f 130/130/76 129/129/76 141/141/76
f 130/130/76 141/141/76 142/142/76
f 134/134/76 133/133/76 143/143/76
f 134/134/76 143/143/76 144/144/76
f 129/129/76 137/137/76 145/145/76
f 129/129/76 145/145/76 141/141/76
f 133/133/76 130/130/76 142/142/76
f 133/133/76 142/142/76 143/143/76
f 139/139/76 134/134/76 144/144/76
f 139/139/76 144/144/76 146/146/76
f 147/147/77 148/148/77 149/149/77
f 147/147/77 149/149/77 150/150/77
f 149/149/77 151/151/77 152/152/77
f 149/149/77 152/152/77 150/150/77
f 153/153/77 154/154/77 149/149/77
f 153/153/77 149/149/77 148/148/77
f 154/154/77 155/155/77 151/151/77
f 154/154/77 151/151/77 149/149/77
f 154/154/77 153/153/77 156/156/77
f 154/154/77 156/156/77 157/157/77
f 155/155/77 154/154/77 157/157/77
f 155/155/77 157/157/77 158/158/77
f 159/159/77 160/160/77 161/161/77
f 159/159/77 161/161/77 162/162/77
f 163/163/77 164/164/77 161/161/77
f 163/163/77 161/161/77 160/160/77
f 161/161/77 165/165/77 166/166/77
f 161/161/77 166/166/77 162/162/77
f 164/164/77 167/167/77 165/165/77
f 164/164/77 165/165/77 161/161/77
f 165/165/77 168/168/77 169/169/77
f 165/165/77 169/169/77 166/166/77
f 167/167/77 170/170/77 168/168/77
f 167/167/77 168/168/77 165/165/77
f 171/171/77 172/172/77 173/173/77
f 171/171/77 173/173/77 174/174/77
f 175/175/77 176/176/77 177/177/77
f 175/175/77 177/177/77 178/178/77
f 179/179/77 180/180/77 172/172/77
f 179/179/77 172/172/77 171/171/77
f 176/176/77 174/174/77 173/173/77
f 176/176/77 173/173/77 177/177/77
f 181/181/77 182/182/77 173/173/77
f 181/181/77 173/173/77 172/172/77
f 177/177/77 183/183/77 184/184/77
f 177/177/77 184/184/77 178/178/77
f 185/185/77 181/181/77 172/172/77
f 185/185/77 172/172/77 180/180/77
f 182/182/77 183/183/77 177/177/77
f 182/182/77 177/177/77 173/173/77
f 183/183/77 182/182/77 186/186/77
f 183/183/77 186/186/77 187/187/77
f 181/181/77 185/185/77 188/188/77
f 181/181/77 188/188/77 189/189/77
f 184/184/77 183/183/77 187/187/77
f 184/184/77 187/187/77 190/190/77
f 182/182/77 181/181/77 189/189/77
f 182/182/77 189/189/77 186/186/77
f 191/191/77 192/192/77 193/193/77
f 191/191/77 193/193/77 194/194/77
f 195/195/77 196/196/77 197/197/77
f 195/195/77 197/197/77 198/198/77
f 192/192/77 199/199/77 200/200/77
f 192/192/77 200/200/77 193/193/77
f 198/198/77 197/197/77 191/191/77
f 198/198/77 191/191/77 194/194/77
f 191/191/77 201/201/77 202/202/77
f 191/191/77 202/202/77 192/192/77
f 197/197/77 196/196/77 203/203/77
f 197/197/77 203/203/77 204/204/77
f 192/192/77 202/202/77 205/205/77
f 192/192/77 205/205/77 199/199/77
f 197/197/77 204/204/77 201/201/77
f 197/197/77 201/201/77 191/191/77
f 204/204/77 206/206/77 207/207/77
f 204/204/77 207/207/77 201/201/77
f 202/202/77 208/208/77 209/209/77
f 202/202/77 209/209/77 205/205/77
f 203/203/77 210/210/77 206/206/77
f 203/203/77 206/206/77 204/204/77
f 201/201/77 207/207/77 208/208/77
f 201/201/77 208/208/77 202/202/77
